<?xml version="1.0" encoding="utf-8"?>
<!-- Generator: Adobe Illustrator 25.0.0, SVG Export Plug-In . SVG Version: 6.00 Build 0)  -->
<svg version="1.1" id="Fromas" xmlns="http://www.w3.org/2000/svg" xmlns:xlink="http://www.w3.org/1999/xlink" x="0px" y="0px"
	 viewBox="0 0 1080 1080" style="enable-background:new 0 0 1080 1080;" xml:space="preserve">
<g>
	<path d="M454.39,449.94c0-41.33-28.13-41.33-28.13-41.33h-14.9H310.55h-0.04v88.71h108.58
		C437.85,497.32,454.39,491.34,454.39,449.94z"/>
	<path d="M722.53,497.32c-61.39,0-69.94,61.26-69.94,61.26h130.59C783.18,558.58,783.99,497.32,722.53,497.32z"/>
	<path d="M426.26,558.58H310.57v106.25h102.49c1.74,0,4.31,0.09,7.37,0c16.47-0.37,47.77-5.11,47.77-51.65
		C468.2,558.06,426.26,558.58,426.26,558.58z"/>
	<path d="M539.92-0.08C242.13-0.08-0.15,242.2-0.15,540s242.28,540.08,540.08,540.08S1080,837.8,1080,540S837.72-0.08,539.92-0.08z
		 M635.47,361.37H799.5v48.97H635.47V361.37z M552.56,618.16c0,121.32-126.31,117.34-126.31,117.34H310.57h-3.39h-87.76V337.94
		h87.76h3.39h115.69c62.89,0,112.51,34.74,112.51,105.88c0,71.12-60.65,75.64-60.65,75.64
		C558.07,519.46,552.56,618.16,552.56,618.16z M859.39,611.64H653.37c0,73.88,69.96,69.2,69.96,69.2
		c66.07,0,63.74-42.75,63.74-42.75h70.01c0,113.49-136.05,105.7-136.05,105.7c-163.22,0-152.74-151.95-152.74-151.95
		s-0.13-152.76,152.74-152.76C881.95,439.08,859.37,611.64,859.39,611.64z"/>
</g>
</svg>
