<svg id="Pruebas" xmlns="http://www.w3.org/2000/svg" viewBox="0 0 1080 1080"><defs><style>.cls-1{fill:none;}.cls-2{fill:#da2c4c;}.cls-3{fill:#fff;}</style></defs><rect class="cls-1" width="1080" height="1080"/><circle class="cls-2" cx="540" cy="540" r="540"/><g id="Version_5_copia" data-name="Version 5 copia"><path class="cls-3" d="M782.59,504.14c-33.68,101-39.06,117.17-160,159.78,54,17.72,79.48,81.82,56.65,150.3-4.23,12.65,4.21,12.65,16.87,16.87l-25.31,8.44-75.93,25.31c-12.51,4.17-20.9-4-17-16.52a.39.39,0,0,1,.06-.17c35.53-107.9,56.19-187.63-37.88-156.27L476.72,881.73c-4.23,12.64,4.21,12.64,16.86,16.87L468.28,907l-75.93,25.31c-12.65,4.22-21.11-4.22-16.88-16.88L489.38,573.75l4.21-12.66L392.34,594.84l-76.43,25.48c-12.38,3.82-20.52-4.55-16.38-17v0l135-405v0c4.19-12.65-4.24-12.65-16.88-16.87L443,173l50.62-16.88,25.32-8.43c12.66-4.22,21.08,4.21,16.87,16.88l-135,405L502,535.78,603.28,502l-8.44,25.31L590.63,540,548.45,666.56c101.23-33.75,101.23-33.75,132.89-128.67S713,443,611.72,476.72L510.47,510.47l8.44-25.31,101.25-33.75C822.66,383.91,822.66,383.91,782.59,504.14Z"/></g></svg>