<?xml version="1.0" encoding="utf-8"?>
<!-- Generator: Adobe Illustrator 25.0.0, SVG Export Plug-In . SVG Version: 6.00 Build 0)  -->
<svg version="1.1" id="Fromas" xmlns="http://www.w3.org/2000/svg" xmlns:xlink="http://www.w3.org/1999/xlink" x="0px" y="0px"
	 viewBox="0 0 1080 1080" style="enable-background:new 0 0 1080 1080;" xml:space="preserve">
<path d="M540,0.07c-298.24,0-540,241.78-540,540c0,298.22,241.77,540,540,540s540-241.79,540-540C1080,241.84,838.22,0.07,540,0.07z
	 M797.19,477.89c-6.42,76.85-62.64,166.53-114.58,192.15c-51.95,25.62-107.47,25.62-139.49,9.96c0,0-41.28-24.91-46.97-32.04
	c-3.56,2.85-14.95,73.31-32.03,117.42c-17.08,44.12-40.56,87.54-74.02,107.46c-12.09-39.85-4.27-138.06,19.22-224.89
	c23.5-86.82,32.75-127.39,32.75-127.39s-29.89-56.94-0.71-119.55c29.18-62.62,83.97-48.39,94.65-38.43
	c10.68,9.96,29.89,17.79,14.23,81.84s-41.99,126.68-19.93,160.84c13.51,19.22,85.4,34.86,125.95-19.22
	c32.75-54.8,45.57-79.7,46.98-165.82c0,0,1.53-138.16-121.71-146.59c-103.89-7.12-151.88,37.26-183.6,68.31
	c-33.45,32.74-58.35,122.39-27.04,172.21c15.66,22.05,16.37,34.86,14.23,47.68c-2.14,12.81-12.1,32.03-12.1,32.03
	s-88.24-15.65-92.5-123.83c-4.28-108.17,46.25-170.09,91.08-204.24c44.85-34.16,122.64-77.81,276.36-49.34
	C749.5,244,813.55,331.29,797.19,477.89z"/>
</svg>
